M48
; DRILL file {KiCad (6.0.5)} date Thu Dec 29 23:16:23 2022
; FORMAT={-:-/ absolute / inch / decimal}
; #@! TF.CreationDate,2022-12-29T23:16:23-04:00
; #@! TF.GenerationSoftware,Kicad,Pcbnew,(6.0.5)
; #@! TF.FileFunction,Plated,1,2,PTH
FMAT,2
INCH
; #@! TA.AperFunction,Plated,PTH,ComponentDrill
T1C0.0315
; #@! TA.AperFunction,Plated,PTH,ComponentDrill
T2C0.0354
; #@! TA.AperFunction,Plated,PTH,ComponentDrill
T3C0.0394
; #@! TA.AperFunction,Plated,PTH,ComponentDrill
T4C0.0433
; #@! TA.AperFunction,Plated,PTH,ComponentDrill
T5C0.0472
; #@! TA.AperFunction,Plated,PTH,ComponentDrill
T6C0.0630
%
G90
G05
T1
X1.675Y-2.35
X1.675Y-2.95
X1.975Y-2.05
X1.975Y-2.65
X2.1Y-2.05
X2.7Y-2.05
X3.3Y-4.924
X3.3Y-5.0224
X3.499Y-4.875
X3.5974Y-4.875
X3.7Y-2.6
X3.7Y-3.2
X3.925Y-4.325
X3.925Y-4.925
X4.825Y-4.325
X4.825Y-4.925
X5.15Y-2.9
X5.15Y-3.5
X5.85Y-3.975
X6.45Y-3.975
T2
X1.975Y-2.775
X1.975Y-2.875
T3
X1.625Y-4.3
X1.625Y-4.4
X1.875Y-3.0754
X1.875Y-3.6754
X1.975Y-3.0754
X1.975Y-3.6754
X2.075Y-3.0754
X2.075Y-3.6754
X2.175Y-3.0754
X2.175Y-3.6754
X2.2244Y-2.775
X2.275Y-3.0754
X2.275Y-3.6754
X2.3244Y-2.775
X2.375Y-3.0754
X2.375Y-3.6754
X2.4244Y-2.775
X2.475Y-3.0754
X2.475Y-3.6754
X2.5244Y-2.775
X2.575Y-3.0754
X2.575Y-3.6754
X2.6244Y-2.775
X2.675Y-3.0754
X2.675Y-3.6754
X2.7244Y-2.775
X2.775Y-3.0754
X2.775Y-3.6754
X2.8244Y-2.775
X2.875Y-3.0754
X2.875Y-3.6754
X2.9244Y-2.775
X2.975Y-3.0754
X2.975Y-3.6754
X3.0244Y-2.775
X3.075Y-3.0754
X3.075Y-3.6754
X3.1244Y-2.775
X3.175Y-3.0754
X3.175Y-3.6754
X3.2244Y-2.775
X3.275Y-3.0754
X3.275Y-3.6754
X3.3244Y-2.775
X3.4244Y-2.775
X4.8Y-2.925
X4.8Y-3.025
X4.8Y-3.125
X4.8Y-3.225
X5.05Y-4.25
X5.15Y-4.25
X5.45Y-4.4256
X5.45Y-4.5256
X5.45Y-4.6256
X6.7Y-4.15
X6.7Y-4.25
X6.7Y-4.35
T4
X4.2Y-3.9872
X4.2Y-4.2372
X4.3Y-3.9872
X4.3Y-4.2372
X4.4Y-3.9872
X4.4Y-4.2372
X5.15Y-3.625
X5.15Y-4.125
T5
X3.5Y-4.2617
X3.5Y-4.557
T6
X1.875Y-4.025
X1.875Y-4.625
X2.075Y-4.025
X2.075Y-4.6
X2.675Y-4.025
X2.675Y-4.6
X2.925Y-4.025
X2.925Y-4.625
X5.85Y-4.25
X5.85Y-4.65
X6.45Y-4.25
X6.45Y-4.65
T0
M30
