%TF.GenerationSoftware,KiCad,Pcbnew,(6.0.5)*%
%TF.CreationDate,2022-12-29T23:16:15-04:00*%
%TF.ProjectId,Alimentation project,416c696d-656e-4746-9174-696f6e207072,rev?*%
%TF.SameCoordinates,Original*%
%TF.FileFunction,Copper,L2,Bot*%
%TF.FilePolarity,Positive*%
%FSLAX46Y46*%
G04 Gerber Fmt 4.6, Leading zero omitted, Abs format (unit mm)*
G04 Created by KiCad (PCBNEW (6.0.5)) date 2022-12-29 23:16:15*
%MOMM*%
%LPD*%
G01*
G04 APERTURE LIST*
%TA.AperFunction,ComponentPad*%
%ADD10R,1.700000X1.700000*%
%TD*%
%TA.AperFunction,ComponentPad*%
%ADD11O,1.700000X1.700000*%
%TD*%
%TA.AperFunction,ComponentPad*%
%ADD12R,1.905000X2.000000*%
%TD*%
%TA.AperFunction,ComponentPad*%
%ADD13O,1.905000X2.000000*%
%TD*%
%TA.AperFunction,ComponentPad*%
%ADD14R,3.200000X3.200000*%
%TD*%
%TA.AperFunction,ComponentPad*%
%ADD15O,3.200000X3.200000*%
%TD*%
%TA.AperFunction,ComponentPad*%
%ADD16C,1.600000*%
%TD*%
%TA.AperFunction,ComponentPad*%
%ADD17O,1.600000X1.600000*%
%TD*%
%TA.AperFunction,ComponentPad*%
%ADD18R,2.200000X2.200000*%
%TD*%
%TA.AperFunction,ComponentPad*%
%ADD19O,2.200000X2.200000*%
%TD*%
%TA.AperFunction,ComponentPad*%
%ADD20R,2.400000X2.400000*%
%TD*%
%TA.AperFunction,ComponentPad*%
%ADD21C,2.400000*%
%TD*%
%TA.AperFunction,ComponentPad*%
%ADD22R,1.600000X1.600000*%
%TD*%
%TA.AperFunction,ComponentPad*%
%ADD23R,1.800000X1.800000*%
%TD*%
%TA.AperFunction,ComponentPad*%
%ADD24C,1.800000*%
%TD*%
%TA.AperFunction,Conductor*%
%ADD25C,1.000000*%
%TD*%
G04 APERTURE END LIST*
D10*
%TO.P,MES1,1,-*%
%TO.N,Net-(C3-Pad1)*%
X128270000Y-107950000D03*
D11*
%TO.P,MES1,2,+*%
%TO.N,Net-(D5-Pad2)*%
X130810000Y-107950000D03*
%TD*%
D10*
%TO.P,REF\u002A\u002A,1*%
%TO.N,Screen GND*%
X121920000Y-74295000D03*
D11*
%TO.P,REF\u002A\u002A,2*%
%TO.N,Screen Vcc*%
X121920000Y-76835000D03*
%TO.P,REF\u002A\u002A,3*%
%TO.N,Screen SCK*%
X121920000Y-79375000D03*
%TO.P,REF\u002A\u002A,4*%
%TO.N,Screen SDA*%
X121920000Y-81915000D03*
%TD*%
D12*
%TO.P,U1,1,IN*%
%TO.N,Net-(C1-Pad1)*%
X106680000Y-101275000D03*
D13*
%TO.P,U1,2,GND*%
%TO.N,Screen GND*%
X109220000Y-101275000D03*
%TO.P,U1,3,OUT*%
%TO.N,Screen Vcc*%
X111760000Y-101275000D03*
%TD*%
D10*
%TO.P,RV1,1,1*%
%TO.N,Net-(R2-Pad1)*%
X138430000Y-112410000D03*
D11*
%TO.P,RV1,2,2*%
%TO.N,Screen GND*%
X138430000Y-114950000D03*
%TO.P,RV1,3,3*%
X138430000Y-117490000D03*
%TD*%
D14*
%TO.P,D3,1,K*%
%TO.N,Transfor2*%
X52705000Y-116840000D03*
D15*
%TO.P,D3,2,A*%
%TO.N,Screen GND*%
X67945000Y-116840000D03*
%TD*%
D16*
%TO.P,R3,1*%
%TO.N,Net-(R3-Pad1)*%
X130810000Y-88900000D03*
D17*
%TO.P,R3,2*%
%TO.N,Net-(R3-Pad2)*%
X130810000Y-73660000D03*
%TD*%
D16*
%TO.P,R1,1*%
%TO.N,Net-(R1-Pad1)*%
X99695000Y-125095000D03*
D17*
%TO.P,R1,2*%
%TO.N,Net-(C3-Pad1)*%
X99695000Y-109855000D03*
%TD*%
D18*
%TO.P,D7,1,K*%
%TO.N,Net-(R3-Pad1)*%
X130810000Y-92075000D03*
D19*
%TO.P,D7,2,A*%
%TO.N,Net-(D5-Pad2)*%
X130810000Y-104775000D03*
%TD*%
D10*
%TO.P,REF\u002A\u002A,1*%
%TO.N,Screen GND*%
X86980000Y-70485000D03*
D11*
%TO.P,REF\u002A\u002A,2*%
%TO.N,Screen Vcc*%
X84440000Y-70485000D03*
%TO.P,REF\u002A\u002A,3*%
%TO.N,Display_0*%
X81900000Y-70485000D03*
%TO.P,REF\u002A\u002A,4*%
%TO.N,Display_1*%
X79360000Y-70485000D03*
%TO.P,REF\u002A\u002A,5*%
%TO.N,Display_2*%
X76820000Y-70485000D03*
%TO.P,REF\u002A\u002A,6*%
%TO.N,Display_3*%
X74280000Y-70485000D03*
%TO.P,REF\u002A\u002A,7*%
%TO.N,Display_4*%
X71740000Y-70485000D03*
%TO.P,REF\u002A\u002A,8*%
%TO.N,Display_5*%
X69200000Y-70485000D03*
%TO.P,REF\u002A\u002A,9*%
%TO.N,Display_6*%
X66660000Y-70485000D03*
%TO.P,REF\u002A\u002A,10*%
%TO.N,Display_7*%
X64120000Y-70485000D03*
%TO.P,REF\u002A\u002A,11*%
%TO.N,Display_8*%
X61580000Y-70485000D03*
%TO.P,REF\u002A\u002A,12*%
%TO.N,Display_9*%
X59040000Y-70485000D03*
%TO.P,REF\u002A\u002A,13*%
%TO.N,Display_10*%
X56500000Y-70485000D03*
%TD*%
D20*
%TO.P,C1,1*%
%TO.N,Net-(C1-Pad1)*%
X88900000Y-108247246D03*
D21*
%TO.P,C1,2*%
%TO.N,Screen GND*%
X88900000Y-115747246D03*
%TD*%
D16*
%TO.P,R8,1*%
%TO.N,Net-(A1-Pad20)*%
X50165000Y-52070000D03*
D17*
%TO.P,R8,2*%
%TO.N,Screen GND*%
X50165000Y-67310000D03*
%TD*%
D12*
%TO.P,U2,1,ADJ*%
%TO.N,Net-(R2-Pad1)*%
X111760000Y-107625000D03*
D13*
%TO.P,U2,2,VO*%
%TO.N,Net-(C3-Pad1)*%
X109220000Y-107625000D03*
%TO.P,U2,3,VI*%
%TO.N,Net-(C1-Pad1)*%
X106680000Y-107625000D03*
%TD*%
D22*
%TO.P,C2,1*%
%TO.N,Net-(C1-Pad1)*%
X91375113Y-123825000D03*
D16*
%TO.P,C2,2*%
%TO.N,Screen GND*%
X88875113Y-123825000D03*
%TD*%
D14*
%TO.P,D1,1,K*%
%TO.N,Transfor1*%
X47625000Y-102235000D03*
D15*
%TO.P,D1,2,A*%
%TO.N,Screen GND*%
X47625000Y-117475000D03*
%TD*%
D22*
%TO.P,C3,1*%
%TO.N,Net-(C3-Pad1)*%
X83820000Y-127570113D03*
D16*
%TO.P,C3,2*%
%TO.N,Screen GND*%
X83820000Y-125070113D03*
%TD*%
D22*
%TO.P,A1,1,D1/TX*%
%TO.N,Display_1*%
X83185000Y-78115000D03*
D17*
%TO.P,A1,2,D0/RX*%
%TO.N,Display_0*%
X80645000Y-78115000D03*
%TO.P,A1,3,~{RESET}*%
%TO.N,unconnected-(A1-Pad3)*%
X78105000Y-78115000D03*
%TO.P,A1,4,GND*%
%TO.N,Screen GND*%
X75565000Y-78115000D03*
%TO.P,A1,5,D2*%
%TO.N,Display_2*%
X73025000Y-78115000D03*
%TO.P,A1,6,D3*%
%TO.N,Display_3*%
X70485000Y-78115000D03*
%TO.P,A1,7,D4*%
%TO.N,Display_4*%
X67945000Y-78115000D03*
%TO.P,A1,8,D5*%
%TO.N,Display_5*%
X65405000Y-78115000D03*
%TO.P,A1,9,D6*%
%TO.N,Display_6*%
X62865000Y-78115000D03*
%TO.P,A1,10,D7*%
%TO.N,Display_7*%
X60325000Y-78115000D03*
%TO.P,A1,11,D8*%
%TO.N,Display_8*%
X57785000Y-78115000D03*
%TO.P,A1,12,D9*%
%TO.N,Display_9*%
X55245000Y-78115000D03*
%TO.P,A1,13,D10*%
%TO.N,Display_10*%
X52705000Y-78115000D03*
%TO.P,A1,14,D11*%
%TO.N,Net-(A1-Pad14)*%
X50165000Y-78115000D03*
%TO.P,A1,15,D12*%
%TO.N,unconnected-(A1-Pad15)*%
X47625000Y-78115000D03*
%TO.P,A1,16,D13*%
%TO.N,unconnected-(A1-Pad16)*%
X47625000Y-93355000D03*
%TO.P,A1,17,3V3*%
%TO.N,unconnected-(A1-Pad17)*%
X50165000Y-93355000D03*
%TO.P,A1,18,AREF*%
%TO.N,unconnected-(A1-Pad18)*%
X52705000Y-93355000D03*
%TO.P,A1,19,A0*%
%TO.N,Net-(A1-Pad19)*%
X55245000Y-93355000D03*
%TO.P,A1,20,A1*%
%TO.N,Net-(A1-Pad20)*%
X57785000Y-93355000D03*
%TO.P,A1,21,A2*%
%TO.N,unconnected-(A1-Pad21)*%
X60325000Y-93355000D03*
%TO.P,A1,22,A3*%
%TO.N,unconnected-(A1-Pad22)*%
X62865000Y-93355000D03*
%TO.P,A1,23,A4*%
%TO.N,Screen SDA*%
X65405000Y-93355000D03*
%TO.P,A1,24,A5*%
%TO.N,Screen SCK*%
X67945000Y-93355000D03*
%TO.P,A1,25,A6*%
%TO.N,unconnected-(A1-Pad25)*%
X70485000Y-93355000D03*
%TO.P,A1,26,A7*%
%TO.N,unconnected-(A1-Pad26)*%
X73025000Y-93355000D03*
%TO.P,A1,27,+5V*%
%TO.N,unconnected-(A1-Pad27)*%
X75565000Y-93355000D03*
%TO.P,A1,28,~{RESET}*%
%TO.N,unconnected-(A1-Pad28)*%
X78105000Y-93355000D03*
%TO.P,A1,29,GND*%
%TO.N,Screen GND*%
X80645000Y-93355000D03*
%TO.P,A1,30,VIN*%
%TO.N,Screen Vcc*%
X83185000Y-93355000D03*
%TD*%
D14*
%TO.P,D2,1,K*%
%TO.N,Net-(D2-Pad1)*%
X67945000Y-102235000D03*
D15*
%TO.P,D2,2,A*%
%TO.N,Transfor1*%
X52705000Y-102235000D03*
%TD*%
D16*
%TO.P,R7,1*%
%TO.N,Net-(R6-Pad2)*%
X68580000Y-52070000D03*
D17*
%TO.P,R7,2*%
%TO.N,Net-(A1-Pad20)*%
X53340000Y-52070000D03*
%TD*%
D10*
%TO.P,REF\u002A\u002A,1*%
%TO.N,Sortie sonde*%
X170180000Y-105410000D03*
D11*
%TO.P,REF\u002A\u002A,2*%
%TO.N,Sortie +*%
X170180000Y-107950000D03*
%TO.P,REF\u002A\u002A,3*%
%TO.N,Sortie -*%
X170180000Y-110490000D03*
%TD*%
D16*
%TO.P,R2,1*%
%TO.N,Net-(R2-Pad1)*%
X122555000Y-109855000D03*
D17*
%TO.P,R2,2*%
%TO.N,Net-(R1-Pad1)*%
X122555000Y-125095000D03*
%TD*%
D16*
%TO.P,R6,1*%
%TO.N,Sortie sonde*%
X163830000Y-100965000D03*
D17*
%TO.P,R6,2*%
%TO.N,Net-(R6-Pad2)*%
X148590000Y-100965000D03*
%TD*%
D14*
%TO.P,D5,1,K*%
%TO.N,Sortie +*%
X163830000Y-107950000D03*
D15*
%TO.P,D5,2,A*%
%TO.N,Net-(D5-Pad2)*%
X148590000Y-107950000D03*
%TD*%
D14*
%TO.P,D6,1,K*%
%TO.N,Screen GND*%
X148590000Y-118110000D03*
D15*
%TO.P,D6,2,A*%
%TO.N,Sortie -*%
X163830000Y-118110000D03*
%TD*%
D14*
%TO.P,D4,1,K*%
%TO.N,Net-(D2-Pad1)*%
X74295000Y-102235000D03*
D15*
%TO.P,D4,2,A*%
%TO.N,Transfor2*%
X74295000Y-117475000D03*
%TD*%
D23*
%TO.P,D8,1,K*%
%TO.N,Screen GND*%
X50165000Y-70485000D03*
D24*
%TO.P,D8,2,A*%
%TO.N,Net-(A1-Pad14)*%
X50165000Y-73025000D03*
%TD*%
D16*
%TO.P,R4,1*%
%TO.N,Net-(A1-Pad19)*%
X93980000Y-81280000D03*
D17*
%TO.P,R4,2*%
%TO.N,Screen GND*%
X93980000Y-66040000D03*
%TD*%
D10*
%TO.P,REF\u002A\u002A,1*%
%TO.N,Transfor1*%
X41275000Y-109220000D03*
D11*
%TO.P,REF\u002A\u002A,2*%
%TO.N,Transfor2*%
X41275000Y-111760000D03*
%TD*%
D16*
%TO.P,R5,1*%
%TO.N,Net-(R3-Pad2)*%
X42545000Y-59690000D03*
D17*
%TO.P,R5,2*%
%TO.N,Net-(A1-Pad19)*%
X42545000Y-74930000D03*
%TD*%
D25*
%TO.N,Display_1*%
X79360000Y-70485000D02*
X79360000Y-74290000D01*
X79360000Y-74290000D02*
X83185000Y-78115000D01*
%TO.N,Screen SCK*%
X67945000Y-88900000D02*
X118745000Y-88900000D01*
X67945000Y-93355000D02*
X67945000Y-88900000D01*
X118745000Y-88900000D02*
X119380000Y-88265000D01*
X119380000Y-79375000D02*
X121920000Y-79375000D01*
X119380000Y-88265000D02*
X119380000Y-79375000D01*
%TO.N,Screen Vcc*%
X84440000Y-70485000D02*
X84440000Y-73645000D01*
X116840000Y-76835000D02*
X121920000Y-76835000D01*
X90170000Y-79375000D02*
X101600000Y-79375000D01*
X116840000Y-86360000D02*
X116840000Y-76835000D01*
X84440000Y-73645000D02*
X90170000Y-79375000D01*
X101600000Y-79375000D02*
X108585000Y-86360000D01*
X108585000Y-86360000D02*
X116840000Y-86360000D01*
%TD*%
M02*
