%TF.GenerationSoftware,KiCad,Pcbnew,(6.0.5)*%
%TF.CreationDate,2022-12-29T23:16:15-04:00*%
%TF.ProjectId,Alimentation project,416c696d-656e-4746-9174-696f6e207072,rev?*%
%TF.SameCoordinates,Original*%
%TF.FileFunction,Soldermask,Bot*%
%TF.FilePolarity,Negative*%
%FSLAX46Y46*%
G04 Gerber Fmt 4.6, Leading zero omitted, Abs format (unit mm)*
G04 Created by KiCad (PCBNEW (6.0.5)) date 2022-12-29 23:16:15*
%MOMM*%
%LPD*%
G01*
G04 APERTURE LIST*
%ADD10R,1.700000X1.700000*%
%ADD11O,1.700000X1.700000*%
%ADD12C,3.700000*%
%ADD13R,1.905000X2.000000*%
%ADD14O,1.905000X2.000000*%
%ADD15R,3.200000X3.200000*%
%ADD16O,3.200000X3.200000*%
%ADD17C,1.600000*%
%ADD18O,1.600000X1.600000*%
%ADD19R,2.200000X2.200000*%
%ADD20O,2.200000X2.200000*%
%ADD21R,2.400000X2.400000*%
%ADD22C,2.400000*%
%ADD23R,1.600000X1.600000*%
%ADD24R,1.800000X1.800000*%
%ADD25C,1.800000*%
G04 APERTURE END LIST*
D10*
%TO.C,MES1*%
X128270000Y-107950000D03*
D11*
X130810000Y-107950000D03*
%TD*%
D10*
%TO.C,REF\u002A\u002A*%
X121920000Y-74295000D03*
D11*
X121920000Y-76835000D03*
X121920000Y-79375000D03*
X121920000Y-81915000D03*
%TD*%
D12*
%TO.C,REF\u002A\u002A*%
X106680000Y-67310000D03*
%TD*%
D13*
%TO.C,U1*%
X106680000Y-101275000D03*
D14*
X109220000Y-101275000D03*
X111760000Y-101275000D03*
%TD*%
D10*
%TO.C,RV1*%
X138430000Y-112410000D03*
D11*
X138430000Y-114950000D03*
X138430000Y-117490000D03*
%TD*%
D15*
%TO.C,D3*%
X52705000Y-116840000D03*
D16*
X67945000Y-116840000D03*
%TD*%
D17*
%TO.C,R3*%
X130810000Y-88900000D03*
D18*
X130810000Y-73660000D03*
%TD*%
D17*
%TO.C,R1*%
X99695000Y-125095000D03*
D18*
X99695000Y-109855000D03*
%TD*%
D19*
%TO.C,D7*%
X130810000Y-92075000D03*
D20*
X130810000Y-104775000D03*
%TD*%
D10*
%TO.C,REF\u002A\u002A*%
X86980000Y-70485000D03*
D11*
X84440000Y-70485000D03*
X81900000Y-70485000D03*
X79360000Y-70485000D03*
X76820000Y-70485000D03*
X74280000Y-70485000D03*
X71740000Y-70485000D03*
X69200000Y-70485000D03*
X66660000Y-70485000D03*
X64120000Y-70485000D03*
X61580000Y-70485000D03*
X59040000Y-70485000D03*
X56500000Y-70485000D03*
%TD*%
D21*
%TO.C,C1*%
X88900000Y-108247246D03*
D22*
X88900000Y-115747246D03*
%TD*%
D17*
%TO.C,R8*%
X50165000Y-52070000D03*
D18*
X50165000Y-67310000D03*
%TD*%
D12*
%TO.C,REF\u002A\u002A*%
X41275000Y-123190000D03*
%TD*%
D13*
%TO.C,U2*%
X111760000Y-107625000D03*
D14*
X109220000Y-107625000D03*
X106680000Y-107625000D03*
%TD*%
D23*
%TO.C,C2*%
X91375113Y-123825000D03*
D17*
X88875113Y-123825000D03*
%TD*%
D15*
%TO.C,D1*%
X47625000Y-102235000D03*
D16*
X47625000Y-117475000D03*
%TD*%
D23*
%TO.C,C3*%
X83820000Y-127570113D03*
D17*
X83820000Y-125070113D03*
%TD*%
D23*
%TO.C,A1*%
X83185000Y-78115000D03*
D18*
X80645000Y-78115000D03*
X78105000Y-78115000D03*
X75565000Y-78115000D03*
X73025000Y-78115000D03*
X70485000Y-78115000D03*
X67945000Y-78115000D03*
X65405000Y-78115000D03*
X62865000Y-78115000D03*
X60325000Y-78115000D03*
X57785000Y-78115000D03*
X55245000Y-78115000D03*
X52705000Y-78115000D03*
X50165000Y-78115000D03*
X47625000Y-78115000D03*
X47625000Y-93355000D03*
X50165000Y-93355000D03*
X52705000Y-93355000D03*
X55245000Y-93355000D03*
X57785000Y-93355000D03*
X60325000Y-93355000D03*
X62865000Y-93355000D03*
X65405000Y-93355000D03*
X67945000Y-93355000D03*
X70485000Y-93355000D03*
X73025000Y-93355000D03*
X75565000Y-93355000D03*
X78105000Y-93355000D03*
X80645000Y-93355000D03*
X83185000Y-93355000D03*
%TD*%
D15*
%TO.C,D2*%
X67945000Y-102235000D03*
D16*
X52705000Y-102235000D03*
%TD*%
D17*
%TO.C,R7*%
X68580000Y-52070000D03*
D18*
X53340000Y-52070000D03*
%TD*%
D10*
%TO.C,REF\u002A\u002A*%
X170180000Y-105410000D03*
D11*
X170180000Y-107950000D03*
X170180000Y-110490000D03*
%TD*%
D17*
%TO.C,R2*%
X122555000Y-109855000D03*
D18*
X122555000Y-125095000D03*
%TD*%
D17*
%TO.C,R6*%
X163830000Y-100965000D03*
D18*
X148590000Y-100965000D03*
%TD*%
D15*
%TO.C,D5*%
X163830000Y-107950000D03*
D16*
X148590000Y-107950000D03*
%TD*%
D15*
%TO.C,D6*%
X148590000Y-118110000D03*
D16*
X163830000Y-118110000D03*
%TD*%
D15*
%TO.C,D4*%
X74295000Y-102235000D03*
D16*
X74295000Y-117475000D03*
%TD*%
D24*
%TO.C,D8*%
X50165000Y-70485000D03*
D25*
X50165000Y-73025000D03*
%TD*%
D17*
%TO.C,R4*%
X93980000Y-81280000D03*
D18*
X93980000Y-66040000D03*
%TD*%
D10*
%TO.C,REF\u002A\u002A*%
X41275000Y-109220000D03*
D11*
X41275000Y-111760000D03*
%TD*%
D12*
%TO.C,REF\u002A\u002A*%
X139065000Y-125095000D03*
%TD*%
D17*
%TO.C,R5*%
X42545000Y-59690000D03*
D18*
X42545000Y-74930000D03*
%TD*%
M02*
